<svg xmlns="http://www.w3.org/2000/svg" xmlns:xlink="http://www.w3.org/1999/xlink" version="1.1" width="256" height="256" viewBox="0 0 256 256" xml:space="preserve">

<defs>
</defs>
<g style="stroke: none; stroke-width: 0; stroke-dasharray: none; stroke-linecap: butt; stroke-linejoin: miter; stroke-miterlimit: 10; fill: none; fill-rule: nonzero; opacity: 1;" transform="translate(1.4065934065934016 1.4065934065934016) scale(2.81 2.81)" >
	<circle cx="45" cy="45" r="45" style="stroke: none; stroke-width: 1; stroke-dasharray: none; stroke-linecap: butt; stroke-linejoin: miter; stroke-miterlimit: 10; fill: rgb(32,196,203); fill-rule: nonzero; opacity: 1;" transform="  matrix(1 0 0 1 0 0) "/>
	<path d="M 69.334 63.596 l 0.005 -0.712 c 0.013 -1.965 -1.584 -3.583 -3.549 -3.596 l 2.95 0.02 c 1.965 0.013 3.583 -1.584 3.596 -3.548 l 0.005 -0.712 c 0.013 -1.965 -1.584 -3.583 -3.548 -3.596 l -0.155 -0.001 c 1.965 0.013 3.583 -1.584 3.596 -3.549 l 0.005 -0.712 c 0.013 -1.965 -1.584 -3.583 -3.548 -3.596 l -0.425 -0.003 c 1.965 0.013 3.583 -1.584 3.596 -3.548 l 0.005 -0.712 c 0.013 -1.965 -1.584 -3.583 -3.548 -3.596 l -14.935 -0.075 c 1.676 -15.062 -1.36 -18.759 -7.442 -17.387 c -0.464 8.536 -5.948 20.141 -11.452 20.423 l 0.01 -1.463 c 0.007 -1.045 -0.945 -1.906 -2.116 -1.914 l -14.957 -0.099 c -1.171 -0.008 -2.134 0.841 -2.141 1.886 l -0.186 28.032 c -0.007 1.045 0.945 1.906 2.116 1.914 l 14.958 0.099 c 1.171 0.008 2.134 -0.841 2.141 -1.886 l 0.011 -1.706 c 1.949 2.172 6.726 3.538 11.278 3.454 l 20.137 0.134 C 67.703 67.157 69.321 65.56 69.334 63.596 z" style="stroke: none; stroke-width: 1; stroke-dasharray: none; stroke-linecap: butt; stroke-linejoin: miter; stroke-miterlimit: 10; fill: rgb(27,167,173); fill-rule: nonzero; opacity: 1;" transform=" matrix(1 0 0 1 0 0) " stroke-linecap="round" />
	<path d="M 72.09 60.417 l 0.005 -0.712 c 0.013 -1.965 -1.584 -3.583 -3.549 -3.596 l 2.95 0.02 c 1.965 0.013 3.583 -1.584 3.596 -3.548 l 0.005 -0.712 c 0.013 -1.965 -1.584 -3.583 -3.548 -3.596 l -0.155 -0.001 c 1.965 0.013 3.583 -1.584 3.596 -3.549 l 0.005 -0.712 c 0.013 -1.965 -1.584 -3.583 -3.548 -3.596 l -0.425 -0.003 c 1.965 0.013 3.583 -1.584 3.596 -3.548 l 0.005 -0.712 c 0.013 -1.965 -1.584 -3.583 -3.548 -3.596 L 56.139 32.48 c 1.676 -15.062 -1.36 -18.759 -7.442 -17.387 c -0.464 8.536 -5.948 20.141 -11.452 20.423 l 0.01 -1.463 c 0.007 -1.045 -0.945 -1.906 -2.116 -1.914 L 20.181 32.04 c -1.171 -0.008 -2.134 0.841 -2.141 1.886 l -0.186 28.032 c -0.007 1.045 0.945 1.906 2.116 1.914 l 14.958 0.099 c 1.171 0.008 2.134 -0.841 2.141 -1.886 l 0.011 -1.706 c 1.949 2.172 6.726 3.538 11.278 3.454 l 20.137 0.134 C 70.459 63.979 72.077 62.382 72.09 60.417 z" style="stroke: none; stroke-width: 1; stroke-dasharray: none; stroke-linecap: butt; stroke-linejoin: miter; stroke-miterlimit: 10; fill: rgb(255,255,255); fill-rule: nonzero; opacity: 1;" transform=" matrix(1 0 0 1 0 0) " stroke-linecap="round" />
</g>
</svg>