<svg id="Layer_1" xmlns="http://www.w3.org/2000/svg" viewBox="0 0 652 460">
  <style>
    .st1{fill:#6f79ff}.st15{fill:#fff}
  </style>
  <path d="M458.9 129h-.5L39.2 169.1c-3.8.4-6 4.5-4.1 7.8l112.3 195.2c.9 1.6 2.7 2.6 4.6 2.6h.7l299.2-37.5 38.7 58.8c1 1.6 2.7 2.4 4.4 2.4 1.8 0 3.6-.9 4.6-2.7l37.7-67c.8-1.5 2.3-2.4 3.9-2.6l50.2-6.3c4-.5 5.9-5.1 3.6-8.3L463.1 131.1a5.4 5.4 0 0 0-4.2-2.1" fill="#9e9aff"/>
  <path class="st1" d="M88.5 164.4l-38.8 3.7 121.7 140.5-82.9-144.2M557.4 260.4l-386 48.2h421.2l-35.2-48.2"/>
  <path d="M57.4 110.3l112.3 195.2c1.1 1.8 3.1 2.9 5.2 2.6l438.6-54.8c4-.5 6-5.1 3.6-8.3L485.3 64.6a5.15 5.15 0 0 0-4.7-2.1L201.7 89.1l-26-39.3a5.23 5.23 0 0 0-8-.9l-49.2 47c-.9.8-2 1.3-3.1 1.4l-53.9 5.1c-3.9.5-6 4.6-4.1 7.9z" fill="#00b0ff"/>
  <g>
    <path class="st15" d="M136.2 210.4V246H99.1V135.3h47.5c5.6 0 11.2.6 16.6 1.8 5.4 1.2 10.3 3.2 14.5 6.1 4.3 2.9 7.7 6.7 10.3 11.4 2.6 4.7 3.9 10.7 3.9 17.9 0 6.9-1.3 12.7-3.8 17.5-2.6 4.8-5.9 8.7-10.2 11.7-4.2 3-9.1 5.2-14.5 6.6-5.5 1.4-11.1 2-16.8 2h-10.4zm0-46.1v17.8h7.8c2.8 0 5.4-.7 7.7-2.1 2.3-1.4 3.5-3.8 3.5-7.1 0-1.8-.3-3.2-.9-4.3-.6-1.1-1.5-2-2.6-2.6-1.1-.6-2.3-1.1-3.7-1.3a19 19 0 0 0-4.1-.4h-7.7zM207.4 190.1c0-8.9 1.6-16.9 4.7-24 3.1-7.1 7.4-13.2 12.9-18.2s12-8.9 19.5-11.6a71.4 71.4 0 0 1 24.4-4.1c8.8 0 16.9 1.4 24.4 4.1 7.5 2.7 14 6.6 19.5 11.6s9.9 11.1 13 18.2c3.1 7.1 4.7 15.1 4.7 24s-1.6 16.9-4.7 24.2c-3.1 7.3-7.5 13.5-13 18.7-5.5 5.2-12 9.1-19.5 12-7.5 2.8-15.6 4.2-24.4 4.2-8.8 0-16.9-1.4-24.4-4.2-7.5-2.8-14-6.8-19.5-12s-9.8-11.4-12.9-18.7c-3.2-7.3-4.7-15.4-4.7-24.2zm39.5 0c0 3.7.5 7 1.6 10s2.6 5.6 4.5 7.8 4.2 3.9 7 5.1c2.7 1.2 5.6 1.8 8.8 1.8a20.72 20.72 0 0 0 15.7-6.9c2-2.2 3.5-4.8 4.6-7.8 1.1-3 1.6-6.4 1.6-10 0-3.5-.5-6.8-1.6-9.8-1.1-3-2.6-5.5-4.6-7.5-2-2-4.3-3.6-7-4.8-2.7-1.1-5.6-1.7-8.7-1.7-3.1 0-6 .6-8.8 1.7-2.7 1.1-5 2.7-7 4.8-1.9 2-3.4 4.5-4.5 7.5-1 3-1.6 6.2-1.6 9.8zM388.6 249.2a74.3 74.3 0 0 1-37-9.9c-3.5-2-6.7-4.3-9.5-6.8l22.7-24.6c2.6 2.8 6.1 5.3 10.4 7.5 4.3 2.2 8.8 3.3 13.4 3.3 2.1 0 4-.4 5.7-1.1 1.7-.7 2.6-2.1 2.6-4.1 0-1-.3-1.9-.9-2.7-.6-.7-1.6-1.5-3-2.3-1.5-.8-3.5-1.6-6-2.6l-9.6-3.3a79.2 79.2 0 0 1-10.8-4.5c-3.4-1.7-6.5-3.8-9.1-6.3-2.7-2.5-4.8-5.5-6.3-9-1.6-3.5-2.3-7.7-2.3-12.6 0-6.9 1.4-12.7 4.2-17.5 2.8-4.8 6.4-8.7 10.9-11.8 4.4-3.1 9.4-5.3 14.9-6.7a64.12 64.12 0 0 1 38.7 2.2 58.7 58.7 0 0 1 19.9 12.2l-23.1 23.6c-2.5-3.1-5.6-5.5-9.2-7.1-3.6-1.6-6.9-2.4-9.8-2.4-2.7 0-4.9.4-6.6 1.2-1.7.8-2.5 2.1-2.5 3.8 0 1.7.9 2.9 2.6 3.8 1.7.8 4.5 1.9 8.4 3.1 4 1.3 8.1 2.7 12.5 4.4 4.4 1.7 8.4 3.8 12.1 6.5 3.7 2.7 6.7 5.9 9.1 9.8 2.4 3.9 3.6 8.7 3.6 14.4 0 6.7-1.3 12.5-4 17.4-2.7 5-6.2 9.1-10.5 12.4a44.5 44.5 0 0 1-14.6 7.3c-5.8 1.6-11.3 2.4-16.9 2.4zM507.7 248.7c-13.4 0-23.4-2.9-29.9-8.7-6.5-5.8-9.7-14.7-9.7-26.9v-35.8H454V146h14v-22.4h42.6V146h21.7v31.4h-21.7V204c0 4.8 1 8.1 3.1 9.8 2.1 1.7 5 2.6 8.7 2.6 1.4 0 2.9-.1 4.4-.4 1.5-.3 2.7-.5 3.6-.8v30c-2.3 1-5.5 1.8-9.6 2.5-4.2.7-8.5 1-13.1 1z"/>
  </g>
</svg>
